<?xml version="1.0" encoding="utf-8"?>
<!-- Generator: Adobe Illustrator 27.9.0, SVG Export Plug-In . SVG Version: 6.00 Build 0)  -->
<svg version="1.1" id="logomark" xmlns="http://www.w3.org/2000/svg" xmlns:xlink="http://www.w3.org/1999/xlink" x="0px" y="0px"
	 viewBox="0 0 24.3 24.3" style="enable-background:new 0 0 24.3 24.3;" xml:space="preserve">
<style type="text/css">
	.st0{fill:#BDB9B4;}
	.st1{fill:#B31B1B;}
</style>
<g id="tiny">
	<path class="st0" d="M9.8,9.4l2.3,2.7l6.7-7.8c0.4-0.5,0.5-0.7,0.4-1.1c-0.2-0.4-0.6-0.7-1.1-0.7l0,0c-0.3,0-0.5,0.1-0.7,0.3
		L9.8,9.4z"/>
	<path class="st1" d="M15.8,10.7L5.2,0.5C5,0.2,4.7,0.1,4.4,0c-0.4,0-0.9,0.3-1,0.7c-0.2,0.4,0,0.7,0.3,1.2l8.4,10.2l0,0l-6.3,7.7
		c-0.3,0.3-0.5,0.8-0.3,1.3c0.2,0.4,0.6,0.7,1,0.7c0.3,0,0.6-0.1,0.7-0.4l8.5-7.9c0.8-0.7,0.9-1.9,0.1-2.7
		C15.9,10.8,15.9,10.7,15.8,10.7z"/>
	<path class="st0" d="M20.6,22.4l-8.5-10.3l0,0L9.8,9.4l-1.4,1.3c-0.8,0.8-0.8,2.1,0,2.9c0,0,0,0,0,0L19.2,24
		c0.2,0.2,0.5,0.3,0.7,0.3c0.4,0,0.8-0.3,1-0.7C21.1,23.2,20.9,22.7,20.6,22.4z"/>
</g>
</svg>
